<svg xmlns="http://www.w3.org/2000/svg" viewBox="0 0 8 15" width="8" height="15">
	<style>
		tspan { white-space:pre }
		.shp0 { fill: #ffffff } 
	</style>
	<path id="Icon" class="shp0" d="M7.94,9.42c0,-0.8 -0.23,-1.43 -0.68,-1.88c-0.45,-0.45 -1.15,-0.82 -2.09,-1.12c-0.5,-0.16 -0.88,-0.3 -1.13,-0.41c-0.25,-0.12 -0.43,-0.24 -0.52,-0.37c-0.1,-0.13 -0.15,-0.3 -0.15,-0.5c0,-0.29 0.11,-0.51 0.34,-0.67c0.22,-0.16 0.53,-0.24 0.92,-0.24c0.74,0 1.41,0.26 2.03,0.78l1.02,-1.2c-0.64,-0.61 -1.42,-0.98 -2.32,-1.13v-2.07h-1.6v2.06c-0.79,0.12 -1.43,0.42 -1.92,0.89c-0.49,0.47 -0.73,1.06 -0.73,1.76c0,0.7 0.22,1.27 0.65,1.72c0.43,0.45 1.16,0.84 2.19,1.16c0.46,0.14 0.81,0.27 1.05,0.4c0.24,0.13 0.41,0.27 0.5,0.42c0.09,0.15 0.14,0.35 0.14,0.58c0,0.35 -0.13,0.64 -0.39,0.84c-0.26,0.21 -0.62,0.31 -1.08,0.31c-0.88,0 -1.65,-0.31 -2.32,-0.94l-1.13,1.23c0.79,0.78 1.81,1.21 3.04,1.32v2.13h1.6v-2.21c0.81,-0.17 1.45,-0.5 1.9,-1c0.46,-0.5 0.69,-1.11 0.69,-1.84z" />
</svg>