<svg xmlns="http://www.w3.org/2000/svg" viewBox="0 0 15 9" width="15" height="9">
	<style>
		tspan { white-space:pre }
		.shp0 { fill: #ffffff } 
	</style>
	<path id="Icon" class="shp0" d="M13.09,5.72c0.26,0.27 0.7,0.15 0.79,-0.22l1,-3.93c0.1,-0.37 -0.23,-0.71 -0.58,-0.61l-3.74,1.05c-0.35,0.1 -0.47,0.56 -0.21,0.84l0.72,0.75l-2.31,2.43l-3.04,-3.19c-0.38,-0.4 -1,-0.4 -1.39,0l-3.99,4.2c-0.38,0.4 -0.38,1.06 0,1.46c0.38,0.4 1.01,0.4 1.39,0l3.3,-3.47l3.04,3.2c0.38,0.4 1.01,0.4 1.39,0l3,-3.16l0.63,0.66" />
</svg>