<svg xmlns="http://www.w3.org/2000/svg" viewBox="0 0 18 19" width="18" height="19">
	<style>
		tspan { white-space:pre }
		.shp0 { fill: #ffffff } 
	</style>
	<path id="Icon" class="shp0" d="M9.37 16.25L9.37 10.54L15.25 10.54L15.25 15.28C15.25 15.82 14.82 16.25 14.28 16.25L9.37 16.25ZM7.63 2.75L7.63 8.79L1.75 8.79L1.75 3.72C1.75 3.18 2.18 2.75 2.72 2.75L7.63 2.75ZM0 2.94L0 16.06C0 17.13 0.87 18 1.94 18L15.06 18C16.13 18 17 17.13 17 16.06L17 2.94C17 1.87 16.13 1 15.06 1L1.94 1C0.87 1 0 1.87 0 2.94L0 2.94Z" />
</svg>